<?xml version="1.0" encoding="UTF-8"?>
<svg width="256" height="256" viewBox="0 0 256 256" xmlns="http://www.w3.org/2000/svg">
  <!-- Background -->
  <rect width="256" height="256" rx="32" fill="#60a5fa"/>

  <!-- Checklist icon -->
  <g transform="translate(64, 64)">
    <!-- Paper -->
    <rect x="0" y="0" width="128" height="160" rx="8" fill="#ffffff" opacity="0.95"/>

    <!-- Lines (tasks) -->
    <line x1="20" y1="30" x2="108" y2="30" stroke="#1e40af" stroke-width="4" stroke-linecap="round"/>
    <line x1="20" y1="60" x2="108" y2="60" stroke="#1e40af" stroke-width="4" stroke-linecap="round"/>
    <line x1="20" y1="90" x2="108" y2="90" stroke="#1e40af" stroke-width="4" stroke-linecap="round"/>
    <line x1="20" y1="120" x2="80" y2="120" stroke="#1e40af" stroke-width="4" stroke-linecap="round"/>

    <!-- Checkmarks -->
    <circle cx="20" cy="30" r="8" fill="#22c55e"/>
    <circle cx="20" cy="60" r="8" fill="#22c55e"/>
    <circle cx="20" cy="90" r="8" fill="#ef4444"/>
    <circle cx="20" cy="120" r="8" fill="#f59e0b"/>

    <!-- Priority indicator (star) -->
    <path d="M 108 10 L 112 18 L 120 18 L 114 23 L 116 31 L 108 26 L 100 31 L 102 23 L 96 18 L 104 18 Z" fill="#fbbf24"/>
  </g>
</svg>